<?xml version="1.0" encoding="utf-8"?>
<!-- Generator: Adobe Illustrator 27.5.0, SVG Export Plug-In . SVG Version: 6.00 Build 0)  -->
<svg version="1.1" id="Layer_1" xmlns="http://www.w3.org/2000/svg" xmlns:xlink="http://www.w3.org/1999/xlink" x="0px" y="0px"
	 viewBox="0 0 4000 4000" style="enable-background:new 0 0 4000 4000;" xml:space="preserve">
<rect style="fill:#FFFFFF;" width="4000" height="4000"/>
<g>
	<path style="fill-rule:evenodd;clip-rule:evenodd;" d="M1310.59,2177.834l1270.917,0c346.456,0,629.913-283.457,629.913-629.912
		c-0.001-141.422-47.233-272.349-126.703-377.782c-53.937-71.559-122.725-131.375-201.673-174.761
		c-74.801-41.105-158.727-67.46-247.785-75.077c-17.725-1.514-35.651-2.287-53.752-2.287h-543.56l-145.564,252.125l598.632,0.001
		l90.493-0.001c63.246,0,122.99,15.751,175.509,43.525c120.016,63.469,202.276,189.724,202.277,334.261
		c-0.001,207.782-170.013,377.785-377.787,377.785l-1125.353,0.001L1310.59,2177.834z"/>
	<polygon style="fill-rule:evenodd;clip-rule:evenodd;" points="1079.713,3081.987 1346.383,2620.093 1569.952,2232.863 
		1278.82,2232.863 928.49,2839.652 788.58,3081.985 	"/>
	<polygon style="fill-rule:evenodd;clip-rule:evenodd;" points="1515.776,3081.987 1782.446,2620.093 2006.015,2232.863 
		1714.883,2232.863 1364.553,2839.652 1224.643,3081.985 	"/>
</g>
</svg>
